<?xml version="1.0" encoding="UTF-8"?>
<svg width="168px" height="160px" viewBox="0 0 168 160" version="1.1" xmlns="http://www.w3.org/2000/svg" xmlns:xlink="http://www.w3.org/1999/xlink">
    <title>icon-swap-primary</title>
    <g id="页面-1" stroke="none" stroke-width="1" fill="none" fill-rule="evenodd">
        <g id="icon-swap-primary" transform="translate(0.718021, 0.808745)" fill="#F5B941" fill-rule="nonzero">
            <path d="M41.6153123,137.524588 C23.2058206,137.524588 8.28197893,122.600746 8.28197893,104.191255 C8.28197893,85.781763 23.2058206,70.8579213 41.6153123,70.8579213 L124.948646,70.8579213 C134.153391,70.8579213 141.615312,63.3960005 141.615312,54.1912547 C141.615312,44.9865089 134.153391,37.5245881 124.948646,37.5245881 L33.2819789,37.5245881 L33.2819789,54.1912547 C33.2585621,55.8582347 32.2437527,57.3507898 30.7021808,57.9855547 C29.1606089,58.6203196 27.3890635,58.2750869 26.1986455,57.1079213 L1.19864553,32.1079213 C-0.399548511,30.459474 -0.399548511,27.839702 1.19864553,26.1912547 L26.1986455,1.19125474 C27.3999116,0.0137214552 29.1914042,-0.325987871 30.7403565,0.330039014 C32.2893089,0.986065899 33.2918601,2.50913491 33.2819789,4.19125474 L33.2819789,20.8579213 L124.948646,20.8579213 C143.358137,20.8579216 158.281978,35.7817632 158.281978,54.1912547 C158.281978,72.6007462 143.358137,87.5245879 124.948646,87.5245881 L41.6153123,87.5245881 C32.4105665,87.5245881 24.9486457,94.9865089 24.9486457,104.191255 C24.9486457,113.396001 32.4105665,120.857921 41.6153123,120.857921 L133.281979,120.857921 L133.281979,104.191255 C133.272098,102.509135 134.274649,100.986066 135.823601,100.330039 C137.372554,99.6740121 139.164046,100.013721 140.365312,101.191255 L165.365312,126.191255 C166.963506,127.839702 166.963506,130.459474 165.365312,132.107921 L140.365312,157.107921 C139.174894,158.275087 137.403349,158.62032 135.861777,157.985555 C134.320205,157.35079 133.305396,155.858235 133.281979,154.191255 L133.281979,137.524588 L41.6153123,137.524588 Z" id="路径"></path>
        </g>
    </g>
</svg>